<?xml version="1.0" standalone="no"?>
<!DOCTYPE svg PUBLIC "-//W3C//DTD SVG 20010904//EN"
 "http://www.w3.org/TR/2001/REC-SVG-20010904/DTD/svg10.dtd">
<svg version="1.0" xmlns="http://www.w3.org/2000/svg"
 width="700.000000pt" height="700.000000pt" viewBox="0 0 700.000000 700.000000"
 preserveAspectRatio="xMidYMid meet">
<metadata>
Created by potrace 1.11, written by Peter Selinger 2001-2013
</metadata>
<g transform="translate(0.000000,700.000000) scale(0.100000,-0.100000)"
fill="#000000" stroke="none">
<path d="M500 3500 l0 -3000 3000 0 3000 0 0 3000 0 3000 -3000 0 -3000 0 0
-3000z m905 2409 c21 -6 53 -22 70 -35 116 -88 149 -398 62 -574 -42 -86 -92
-122 -177 -128 -115 -8 -195 47 -240 164 -46 121 -36 354 19 462 51 99 154
142 266 111z m635 -324 l0 -325 80 0 80 0 0 -40 0 -40 -205 0 -205 0 0 40 0
40 80 0 80 0 0 280 c0 319 11 289 -100 265 -36 -8 -68 -14 -72 -15 -5 0 -8 18
-8 40 0 44 -9 39 110 64 36 8 86 14 113 15 l47 1 0 -325z m3570 -2405 l0
-1140 -130 0 -130 0 -1 123 0 122 -22 -30 c-52 -70 -142 -155 -195 -183 -169
-89 -404 -95 -576 -14 -277 131 -437 501 -397 920 20 211 74 365 177 499 131
171 320 255 536 239 200 -15 351 -99 452 -251 l26 -40 0 448 0 447 130 0 130
0 0 -1140z m-3216 320 c149 -399 275 -734 279 -744 4 -10 10 -17 12 -14 3 3
131 337 284 744 l278 739 217 3 216 2 0 -1095 0 -1095 -140 0 -140 0 -2 963
-3 962 -254 -675 c-139 -371 -267 -710 -283 -753 l-30 -78 -145 3 -146 3 -281
747 -281 747 -3 -959 -2 -960 -140 0 -140 0 0 1095 0 1095 216 -2 216 -3 272
-725z"/>
<path d="M1280 5833 c-20 -10 -44 -35 -57 -58 -55 -101 -56 -351 -2 -457 46
-91 169 -105 222 -25 48 74 66 310 32 425 -33 108 -115 156 -195 115z"/>
<path d="M4770 3485 c-151 -43 -266 -175 -315 -360 -26 -101 -37 -253 -25
-374 24 -251 117 -418 277 -494 64 -30 75 -32 178 -32 146 0 205 23 290 109
116 117 163 250 172 481 9 236 -34 406 -135 531 -48 60 -127 115 -192 135 -60
19 -190 20 -250 4z"/>
</g>
</svg>
